<svg width="115" height="30" viewBox="0 0 115 30" fill="none" xmlns="http://www.w3.org/2000/svg">
<circle cx="15" cy="15" r="15" fill="white"/>
<path d="M18.5895 9.88869C18.1722 10.0484 17.8098 10.3252 17.5459 10.6858L16.4452 7.82004C16.2927 7.42337 16.035 7.07573 15.6998 6.81445C15.3646 6.55316 14.9646 6.3881 14.5427 6.33697C14.1208 6.28585 13.6929 6.35059 13.305 6.52426C12.9171 6.69793 12.5839 6.97396 12.341 7.32272C12.0244 6.83975 11.5405 6.49088 10.9822 6.34322C10.424 6.19556 9.83084 6.25955 9.31691 6.52287C8.80298 6.78618 8.40457 7.23024 8.19832 7.7696C7.99206 8.30897 7.99253 8.90555 8.19964 9.44459L8.52588 10.294C8.11487 10.2098 7.68879 10.2378 7.29228 10.3748C6.89576 10.5119 6.54338 10.753 6.27203 11.073C6.00069 11.3929 5.82036 11.78 5.74993 12.1936C5.6795 12.6071 5.72156 13.0321 5.8717 13.4238L8.32416 19.8089C9.06018 21.7251 10.5273 23.2705 12.4027 24.105C14.2781 24.9396 16.4083 24.9949 18.3245 24.2589C20.2407 23.5229 21.7861 22.0558 22.6207 20.1803C23.4552 18.3049 23.5106 16.1748 22.7745 14.2585L21.6128 11.2341C21.5027 10.9472 21.3371 10.6849 21.1255 10.462C20.9139 10.2391 20.6605 10.0601 20.3798 9.93521C20.0991 9.81028 19.7965 9.74188 19.4893 9.73389C19.1821 9.72591 18.8763 9.77851 18.5895 9.88869ZM21.7664 14.6458C22.3997 16.2946 22.3521 18.1275 21.634 19.7413C20.9159 21.355 19.5861 22.6174 17.9373 23.2507C16.2884 23.884 14.4555 23.8364 12.8418 23.1183C11.228 22.4002 9.96564 21.0705 9.33233 19.4216L6.87986 13.0366C6.76005 12.7246 6.76906 12.3779 6.90492 12.0726C7.04077 11.7673 7.29234 11.5284 7.60429 11.4086C7.91624 11.2888 8.263 11.2978 8.5683 11.4337C8.87361 11.5695 9.11244 11.8211 9.23225 12.133L10.6521 15.8296C10.7034 15.9633 10.8058 16.0712 10.9366 16.1294C11.0675 16.1876 11.2161 16.1915 11.3498 16.1401C11.4835 16.0888 11.5913 15.9864 11.6495 15.8556C11.7078 15.7247 11.7116 15.5761 11.6603 15.4424L9.2078 9.05736C9.08799 8.74542 9.097 8.39865 9.23285 8.09335C9.36871 7.78804 9.62028 7.54922 9.93223 7.4294C10.2442 7.30958 10.5909 7.31859 10.8962 7.45445C11.2015 7.5903 11.4404 7.84188 11.5602 8.15382L13.7545 13.8668C13.8058 14.0005 13.9082 14.1083 14.039 14.1665C14.1699 14.2247 14.3185 14.2286 14.4522 14.1772C14.5859 14.1259 14.6937 14.0235 14.7519 13.8927C14.8102 13.7618 14.814 13.6132 14.7627 13.4795L13.0847 9.11081C12.9648 8.79887 12.9739 8.4521 13.1097 8.1468C13.2456 7.8415 13.4971 7.60267 13.8091 7.48285C14.121 7.36303 14.4678 7.37205 14.7731 7.5079C15.0784 7.64376 15.3172 7.89533 15.4371 8.20728L17.7085 14.121C16.8267 14.6014 16.1493 15.3854 15.8019 16.3276C15.4546 17.2697 15.4609 18.3058 15.8197 19.2436C15.8711 19.3773 15.9734 19.4852 16.1043 19.5434C16.2351 19.6016 16.3837 19.6055 16.5174 19.5541C16.6511 19.5028 16.7589 19.4004 16.8172 19.2696C16.8754 19.1387 16.8792 18.9901 16.8279 18.8564C16.5369 18.0988 16.5588 17.2567 16.8887 16.5152C17.2187 15.7738 17.8296 15.1938 18.5872 14.9028C18.7209 14.8514 18.8287 14.7491 18.8869 14.6182C18.9452 14.4874 18.949 14.3388 18.8977 14.2051L18.2523 12.5248C18.1325 12.2129 18.1415 11.8661 18.2773 11.5608C18.4132 11.2555 18.6648 11.0167 18.9767 10.8969C19.2887 10.777 19.6354 10.7861 19.9407 10.9219C20.246 11.0578 20.4849 11.3093 20.6047 11.6213L21.7664 14.6458Z" fill="#3F3F3F"/>
<path d="M39.386 23V10.31H41.69V21.038H47.774V23H39.386ZM53.5275 23.18C52.5315 23.18 51.6735 22.994 50.9535 22.622C50.2335 22.25 49.6755 21.722 49.2795 21.038C48.8955 20.354 48.7035 19.544 48.7035 18.608C48.7035 17.696 48.8895 16.898 49.2615 16.214C49.6455 15.53 50.1675 14.996 50.8275 14.612C51.4995 14.216 52.2615 14.018 53.1135 14.018C53.9535 14.018 54.6735 14.198 55.2735 14.558C55.8735 14.918 56.3355 15.428 56.6595 16.088C56.9955 16.748 57.1635 17.534 57.1635 18.446V19.112H50.5215V17.816H55.5795L55.2915 18.086C55.2915 17.27 55.1115 16.646 54.7515 16.214C54.3915 15.77 53.8755 15.548 53.2035 15.548C52.6995 15.548 52.2675 15.668 51.9075 15.908C51.5595 16.136 51.2895 16.466 51.0975 16.898C50.9175 17.318 50.8275 17.822 50.8275 18.41V18.536C50.8275 19.196 50.9295 19.742 51.1335 20.174C51.3375 20.606 51.6435 20.93 52.0515 21.146C52.4595 21.362 52.9635 21.47 53.5635 21.47C54.0555 21.47 54.5475 21.398 55.0395 21.254C55.5315 21.098 55.9815 20.858 56.3895 20.534L57.0195 22.046C56.5995 22.394 56.0715 22.67 55.4355 22.874C54.7995 23.078 54.1635 23.18 53.5275 23.18ZM62.9422 23.18C61.7662 23.18 60.8902 22.886 60.3142 22.298C59.7382 21.71 59.4502 20.852 59.4502 19.724V15.89H57.7582V14.198H59.4502V11.57H61.7002V14.198H64.3642V15.89H61.7002V19.598C61.7002 20.174 61.8262 20.606 62.0782 20.894C62.3302 21.182 62.7382 21.326 63.3022 21.326C63.4702 21.326 63.6442 21.308 63.8242 21.272C64.0042 21.224 64.1902 21.176 64.3822 21.128L64.7242 22.784C64.5082 22.904 64.2322 23 63.8962 23.072C63.5722 23.144 63.2542 23.18 62.9422 23.18ZM66.7184 15.206L65.8004 14.486C66.0524 14.222 66.2504 13.976 66.3944 13.748C66.5504 13.508 66.6584 13.274 66.7184 13.046C66.7904 12.806 66.8264 12.56 66.8264 12.308L67.3844 12.812H65.6204V10.31H68.1404V11.948C68.1404 12.356 68.0924 12.746 67.9964 13.118C67.9124 13.478 67.7684 13.832 67.5644 14.18C67.3604 14.516 67.0784 14.858 66.7184 15.206ZM72.9955 23.18C72.5035 23.18 72.0235 23.138 71.5555 23.054C71.0995 22.97 70.6795 22.856 70.2955 22.712C69.9115 22.556 69.5755 22.364 69.2875 22.136L69.8635 20.66C70.1635 20.852 70.4875 21.02 70.8355 21.164C71.1835 21.308 71.5435 21.416 71.9155 21.488C72.2875 21.56 72.6535 21.596 73.0135 21.596C73.5895 21.596 74.0155 21.5 74.2915 21.308C74.5795 21.104 74.7235 20.84 74.7235 20.516C74.7235 20.24 74.6275 20.03 74.4355 19.886C74.2555 19.73 73.9795 19.616 73.6075 19.544L71.8075 19.202C71.0635 19.058 70.4935 18.788 70.0975 18.392C69.7135 17.984 69.5215 17.462 69.5215 16.826C69.5215 16.25 69.6775 15.752 69.9895 15.332C70.3135 14.912 70.7575 14.588 71.3215 14.36C71.8855 14.132 72.5335 14.018 73.2655 14.018C73.6855 14.018 74.0935 14.06 74.4895 14.144C74.8855 14.216 75.2575 14.33 75.6055 14.486C75.9655 14.63 76.2775 14.822 76.5415 15.062L75.9295 16.538C75.7015 16.346 75.4375 16.184 75.1375 16.052C74.8375 15.908 74.5255 15.8 74.2015 15.728C73.8895 15.644 73.5835 15.602 73.2835 15.602C72.6955 15.602 72.2575 15.704 71.9695 15.908C71.6935 16.112 71.5555 16.382 71.5555 16.718C71.5555 16.97 71.6395 17.18 71.8075 17.348C71.9755 17.516 72.2335 17.63 72.5815 17.69L74.3815 18.032C75.1615 18.176 75.7495 18.44 76.1455 18.824C76.5535 19.208 76.7575 19.724 76.7575 20.372C76.7575 20.96 76.6015 21.464 76.2895 21.884C75.9775 22.304 75.5395 22.628 74.9755 22.856C74.4115 23.072 73.7515 23.18 72.9955 23.18ZM87.4461 23.18C86.2701 23.18 85.3941 22.886 84.8181 22.298C84.2421 21.71 83.9541 20.852 83.9541 19.724V15.89H82.2621V14.198H83.9541V11.57H86.2041V14.198H88.8681V15.89H86.2041V19.598C86.2041 20.174 86.3301 20.606 86.5821 20.894C86.8341 21.182 87.2421 21.326 87.8061 21.326C87.9741 21.326 88.1481 21.308 88.3281 21.272C88.5081 21.224 88.6941 21.176 88.8861 21.128L89.2281 22.784C89.0121 22.904 88.7361 23 88.4001 23.072C88.0761 23.144 87.7581 23.18 87.4461 23.18ZM93.2203 23.18C92.5843 23.18 92.0143 23.06 91.5103 22.82C91.0183 22.568 90.6283 22.232 90.3403 21.812C90.0643 21.392 89.9263 20.918 89.9263 20.39C89.9263 19.742 90.0943 19.232 90.4303 18.86C90.7663 18.476 91.3123 18.2 92.0683 18.032C92.8243 17.864 93.8383 17.78 95.1103 17.78H96.0103V19.076H95.1283C94.5643 19.076 94.0903 19.1 93.7063 19.148C93.3223 19.184 93.0103 19.25 92.7703 19.346C92.5423 19.43 92.3743 19.55 92.2663 19.706C92.1703 19.862 92.1223 20.054 92.1223 20.282C92.1223 20.678 92.2603 21.002 92.5363 21.254C92.8123 21.506 93.1963 21.632 93.6883 21.632C94.0843 21.632 94.4323 21.542 94.7323 21.362C95.0443 21.17 95.2903 20.912 95.4703 20.588C95.6503 20.264 95.7403 19.892 95.7403 19.472V17.402C95.7403 16.802 95.6083 16.37 95.3443 16.106C95.0803 15.842 94.6363 15.71 94.0123 15.71C93.5203 15.71 93.0163 15.788 92.5003 15.944C91.9843 16.088 91.4623 16.316 90.9343 16.628L90.2863 15.098C90.5983 14.882 90.9643 14.696 91.3843 14.54C91.8163 14.372 92.2663 14.246 92.7343 14.162C93.2143 14.066 93.6643 14.018 94.0843 14.018C94.9483 14.018 95.6563 14.15 96.2083 14.414C96.7723 14.678 97.1923 15.08 97.4683 15.62C97.7443 16.148 97.8823 16.832 97.8823 17.672V23H95.7763V21.128H95.9203C95.8363 21.548 95.6683 21.914 95.4163 22.226C95.1763 22.526 94.8703 22.76 94.4983 22.928C94.1263 23.096 93.7003 23.18 93.2203 23.18ZM103.226 23.18C102.182 23.18 101.408 22.898 100.904 22.334C100.412 21.758 100.166 20.918 100.166 19.814V10.31H102.416V19.706C102.416 20.054 102.464 20.354 102.56 20.606C102.668 20.846 102.824 21.026 103.028 21.146C103.232 21.266 103.484 21.326 103.784 21.326C103.916 21.326 104.048 21.32 104.18 21.308C104.312 21.296 104.438 21.272 104.558 21.236L104.522 23.018C104.306 23.066 104.09 23.102 103.874 23.126C103.67 23.162 103.454 23.18 103.226 23.18ZM105.914 23V10.31H108.164V17.942H108.2L111.746 14.198H114.464L110.036 18.878V17.942L114.716 23H111.962L108.2 19.076H108.164V23H105.914Z" fill="white"/>
</svg>
