<svg width="136" height="65" viewBox="0 0 136 65" fill="none" xmlns="http://www.w3.org/2000/svg">
<path d="M37.5195 42.2589C35.0345 42.2589 33.0844 41.5599 31.6693 40.1621C30.2714 38.7642 29.5725 36.7451 29.5725 34.1048V23.8798H32.9377V33.9753C32.9377 35.8391 33.3346 37.1938 34.1285 38.0394C34.9395 38.8851 36.0785 39.3079 37.5454 39.3079C39.0123 39.3079 40.1426 38.8851 40.9365 38.0394C41.7303 37.1938 42.1272 35.8391 42.1272 33.9753V23.8798H45.4406V34.1048C45.4406 36.7451 44.7331 38.7642 43.318 40.1621C41.9201 41.5599 39.9873 42.2589 37.5195 42.2589ZM58.5406 42.2589C57.16 42.2589 55.8743 42.0345 54.6836 41.5858C53.5101 41.1199 52.4832 40.4727 51.6031 39.6444C50.7403 38.7988 50.0672 37.8065 49.584 36.6675C49.1008 35.5285 48.8592 34.286 48.8592 32.9399C48.8592 31.5938 49.1008 30.3513 49.584 29.2123C50.0672 28.0733 50.7489 27.0897 51.629 26.2613C52.5091 25.4157 53.5359 24.7685 54.7094 24.3199C55.8829 23.8539 57.1686 23.6209 58.5665 23.6209C60.0506 23.6209 61.4053 23.8798 62.6306 24.3975C63.8558 24.898 64.8913 25.6487 65.7369 26.6496L63.5625 28.6946C62.9067 27.987 62.1732 27.4607 61.3621 27.1155C60.5511 26.7531 59.6709 26.5719 58.7218 26.5719C57.7726 26.5719 56.9011 26.7273 56.1073 27.0379C55.3307 27.3485 54.649 27.7886 54.0623 28.3581C53.4928 28.9276 53.0441 29.6006 52.7162 30.3772C52.4056 31.1538 52.2503 32.008 52.2503 32.9399C52.2503 33.8718 52.4056 34.726 52.7162 35.5026C53.0441 36.2792 53.4928 36.9522 54.0623 37.5217C54.649 38.0912 55.3307 38.5313 56.1073 38.8419C56.9011 39.1525 57.7726 39.3079 58.7218 39.3079C59.6709 39.3079 60.5511 39.1353 61.3621 38.7901C62.1732 38.4277 62.9067 37.8841 63.5625 37.1593L65.7369 39.2302C64.8913 40.2139 63.8558 40.9646 62.6306 41.4823C61.4053 42 60.042 42.2589 58.5406 42.2589ZM76.9692 42.2589C75.5886 42.2589 74.3029 42.0345 73.1122 41.5858C71.9387 41.1199 70.9119 40.4727 70.0317 39.6444C69.1689 38.7988 68.4958 37.8065 68.0126 36.6675C67.5294 35.5285 67.2878 34.286 67.2878 32.9399C67.2878 31.5938 67.5294 30.3513 68.0126 29.2123C68.4958 28.0733 69.1775 27.0897 70.0576 26.2613C70.9377 25.4157 71.9646 24.7685 73.1381 24.3199C74.3116 23.8539 75.5972 23.6209 76.9951 23.6209C78.4792 23.6209 79.8339 23.8798 81.0592 24.3975C82.2844 24.898 83.3199 25.6487 84.1655 26.6496L81.9911 28.6946C81.3353 27.987 80.6019 27.4607 79.7908 27.1155C78.9797 26.7531 78.0995 26.5719 77.1504 26.5719C76.2012 26.5719 75.3297 26.7273 74.5359 27.0379C73.7593 27.3485 73.0777 27.7886 72.4909 28.3581C71.9214 28.9276 71.4727 29.6006 71.1448 30.3772C70.8342 31.1538 70.6789 32.008 70.6789 32.9399C70.6789 33.8718 70.8342 34.726 71.1448 35.5026C71.4727 36.2792 71.9214 36.9522 72.4909 37.5217C73.0777 38.0912 73.7593 38.5313 74.5359 38.8419C75.3297 39.1525 76.2012 39.3079 77.1504 39.3079C78.0995 39.3079 78.9797 39.1353 79.7908 38.7901C80.6019 38.4277 81.3353 37.8841 81.9911 37.1593L84.1655 39.2302C83.3199 40.2139 82.2844 40.9646 81.0592 41.4823C79.8339 42 78.4706 42.2589 76.9692 42.2589ZM90.4962 31.4126H99.5046V34.1824H90.4962V31.4126ZM90.7551 39.1784H100.98V42H87.3899V23.8798H100.618V26.7014H90.7551V39.1784ZM110.349 42.2589C108.934 42.2589 107.579 42.0604 106.285 41.6635C104.99 41.2493 103.964 40.723 103.204 40.0844L104.369 37.4699C105.094 38.0394 105.991 38.514 107.061 38.8937C108.131 39.2733 109.227 39.4632 110.349 39.4632C111.298 39.4632 112.066 39.3596 112.653 39.1525C113.239 38.9455 113.671 38.6693 113.947 38.3242C114.223 37.9618 114.361 37.5562 114.361 37.1075C114.361 36.5553 114.163 36.1152 113.766 35.7874C113.369 35.4422 112.851 35.1747 112.213 34.9849C111.591 34.7778 110.892 34.588 110.116 34.4154C109.356 34.2428 108.589 34.0444 107.812 33.82C107.053 33.5784 106.354 33.2764 105.715 32.914C105.094 32.5343 104.585 32.0339 104.188 31.4126C103.791 30.7914 103.593 29.9975 103.593 29.0311C103.593 28.0474 103.851 27.1501 104.369 26.339C104.904 25.5106 105.707 24.8548 106.777 24.3716C107.864 23.8712 109.236 23.6209 110.892 23.6209C111.98 23.6209 113.058 23.759 114.128 24.0351C115.198 24.3112 116.13 24.7081 116.924 25.2259L115.863 27.8404C115.051 27.3571 114.214 27.0034 113.352 26.779C112.489 26.5374 111.66 26.4166 110.867 26.4166C109.935 26.4166 109.175 26.5288 108.589 26.7531C108.019 26.9775 107.596 27.2709 107.32 27.6333C107.061 27.9957 106.932 28.4098 106.932 28.8758C106.932 29.428 107.122 29.8767 107.501 30.2219C107.898 30.5498 108.407 30.8086 109.029 30.9984C109.667 31.1883 110.375 31.3781 111.151 31.5679C111.928 31.7405 112.696 31.939 113.455 32.1633C114.232 32.3877 114.931 32.681 115.552 33.0434C116.19 33.4058 116.699 33.8977 117.079 34.5189C117.476 35.1402 117.675 35.9254 117.675 36.8746C117.675 37.841 117.407 38.7384 116.872 39.5667C116.354 40.3778 115.552 41.0336 114.465 41.5341C113.377 42.0173 112.005 42.2589 110.349 42.2589ZM126.629 42.2589C125.214 42.2589 123.859 42.0604 122.565 41.6635C121.27 41.2493 120.243 40.723 119.484 40.0844L120.649 37.4699C121.374 38.0394 122.271 38.514 123.341 38.8937C124.411 39.2733 125.507 39.4632 126.629 39.4632C127.578 39.4632 128.346 39.3596 128.933 39.1525C129.519 38.9455 129.951 38.6693 130.227 38.3242C130.503 37.9618 130.641 37.5562 130.641 37.1075C130.641 36.5553 130.443 36.1152 130.046 35.7874C129.649 35.4422 129.131 35.1747 128.492 34.9849C127.871 34.7778 127.172 34.588 126.396 34.4154C125.636 34.2428 124.868 34.0444 124.092 33.82C123.333 33.5784 122.634 33.2764 121.995 32.914C121.374 32.5343 120.865 32.0339 120.468 31.4126C120.071 30.7914 119.872 29.9975 119.872 29.0311C119.872 28.0474 120.131 27.1501 120.649 26.339C121.184 25.5106 121.986 24.8548 123.056 24.3716C124.144 23.8712 125.516 23.6209 127.172 23.6209C128.259 23.6209 129.338 23.759 130.408 24.0351C131.478 24.3112 132.41 24.7081 133.204 25.2259L132.142 27.8404C131.331 27.3571 130.494 27.0034 129.631 26.779C128.769 26.5374 127.94 26.4166 127.146 26.4166C126.214 26.4166 125.455 26.5288 124.868 26.7531C124.299 26.9775 123.876 27.2709 123.6 27.6333C123.341 27.9957 123.212 28.4098 123.212 28.8758C123.212 29.428 123.402 29.8767 123.781 30.2219C124.178 30.5498 124.687 30.8086 125.308 30.9984C125.947 31.1883 126.655 31.3781 127.431 31.5679C128.208 31.7405 128.976 31.939 129.735 32.1633C130.512 32.3877 131.21 32.681 131.832 33.0434C132.47 33.4058 132.979 33.8977 133.359 34.5189C133.756 35.1402 133.954 35.9254 133.954 36.8746C133.954 37.841 133.687 38.7384 133.152 39.5667C132.634 40.3778 131.832 41.0336 130.745 41.5341C129.657 42.0173 128.285 42.2589 126.629 42.2589Z" fill="url(#paint0_linear_1988_1916)"/>
<path d="M19.9795 26.886C19.4928 24.5423 18.5963 22.7236 17.29 21.4301C15.9964 20.1365 14.4403 19.4898 12.6217 19.4898C10.8414 19.4898 9.45825 19.9124 8.47208 20.7577C7.49872 21.603 7.01204 22.73 7.01204 24.1388C7.01204 24.9201 7.08248 25.5669 7.22336 26.0791C7.36424 26.5914 7.65241 27.0909 8.08786 27.5776C8.52331 28.0515 9.15728 28.4741 9.98975 28.8455C10.8222 29.2041 11.9109 29.5499 13.2556 29.8829C13.9857 30.0622 14.6196 30.2287 15.1575 30.3824C15.7082 30.5361 16.3102 30.7474 16.9634 31.0164C17.6294 31.2853 18.1993 31.5735 18.6732 31.8809C19.1598 32.1883 19.6401 32.5725 20.114 33.0336C20.6007 33.4818 20.9913 33.9813 21.2859 34.532C21.5932 35.0827 21.8366 35.7359 22.0159 36.4915C22.208 37.2344 22.304 38.0476 22.304 38.9314C22.304 40.1096 22.0863 41.1983 21.6509 42.1972C21.2154 43.1834 20.6455 44.0159 19.9411 44.6947C19.2367 45.3735 18.4234 45.9498 17.5013 46.4237C16.5792 46.8975 15.6442 47.2433 14.6965 47.4611C13.7487 47.6788 12.8074 47.7877 11.8724 47.7877C9.0292 47.7877 6.00026 47.0512 2.7856 45.5784C2.84964 44.1952 2.88166 43.3435 2.88166 43.0233C2.88166 40.9357 2.70876 38.8545 2.36296 36.7797C2.50384 36.6901 2.64472 36.6452 2.7856 36.6452C2.96491 36.6452 3.125 36.6901 3.26588 36.7797C3.53484 38.4319 3.97669 39.8919 4.59144 41.1598C5.21901 42.4278 5.93622 43.4331 6.74308 44.176C7.54995 44.906 8.38243 45.4567 9.24052 45.8281C10.1114 46.1867 10.9887 46.366 11.8724 46.366C13.8832 46.366 15.4265 45.8473 16.5023 44.8099C17.5909 43.7597 18.1352 42.3765 18.1352 40.6603C18.1352 38.9314 17.7318 37.6314 16.9249 36.7605C16.1309 35.8768 14.6068 35.1596 12.3527 34.6089C9.53509 33.9045 7.33222 32.8671 5.74411 31.4967C4.1688 30.1135 3.38115 28.2884 3.38115 26.0215C3.38115 24.8304 3.57326 23.7674 3.95748 22.8325C4.35451 21.8847 4.8604 21.1291 5.47515 20.5656C6.10272 19.9892 6.83274 19.5154 7.66522 19.144C8.4977 18.7597 9.31737 18.4972 10.1242 18.3563C10.9439 18.2026 11.7764 18.1258 12.6217 18.1258C15.1575 18.1258 17.7959 18.7149 20.5366 19.8932C20.4598 20.6488 20.4214 21.4365 20.4214 22.2561C20.4214 24.1773 20.5751 25.7205 20.8824 26.886C20.7159 26.95 20.5751 26.9821 20.4598 26.9821C20.3317 26.9821 20.1716 26.95 19.9795 26.886Z" fill="url(#paint1_linear_1988_1916)"/>
<defs>
<linearGradient id="paint0_linear_1988_1916" x1="81.0763" y1="-4.03573e-06" x2="135.335" y2="100.972" gradientUnits="userSpaceOnUse">
<stop stop-color="#5454D4"/>
<stop offset="1" stop-color="#580560"/>
</linearGradient>
<linearGradient id="paint1_linear_1988_1916" x1="12.5" y1="7" x2="33.4" y2="65.8862" gradientUnits="userSpaceOnUse">
<stop stop-color="#5454D4"/>
<stop offset="1" stop-color="#580560"/>
</linearGradient>
</defs>
</svg>
